<svg width="18" height="18" viewBox="0 0 18 18" fill="none" xmlns="http://www.w3.org/2000/svg">
<g clip-path="url(#clip0_58_144)">
<path d="M8.86296 6.14905L11.4396 8.72572L11.4519 8.59075C11.4519 7.23697 10.3517 6.13678 8.99793 6.13678L8.86296 6.14905Z" fill="#18ACFE"/>
<path d="M8.99789 4.50091C11.2555 4.50091 13.0878 6.33321 13.0878 8.59086C13.0878 9.11846 12.9815 9.62153 12.7975 10.0837L15.1901 12.4763C16.4252 11.4456 17.3987 10.1123 17.9999 8.59086C16.5807 4.9999 13.092 2.45595 8.99793 2.45595C7.85273 2.45595 6.75665 2.66043 5.73826 3.02853L7.50511 4.79128C7.96723 4.61133 8.47029 4.50091 8.99789 4.50091Z" fill="#18ACFE"/>
<path d="M0.817976 2.27194L2.68299 4.13695L3.05519 4.50915C1.70551 5.56435 0.638031 6.96722 0 8.5909C1.41513 12.1819 4.90793 14.7258 8.99788 14.7258C10.2658 14.7258 11.4764 14.4804 12.5848 14.0346L12.9324 14.3823L15.3169 16.7708L16.3598 15.7319L1.86091 1.229L0.817976 2.27194ZM5.34148 6.79134L6.60527 8.05513C6.56846 8.23101 6.54392 8.40685 6.54392 8.5909C6.54392 9.94468 7.6441 11.0449 8.99788 11.0449C9.18193 11.0449 9.35781 11.0203 9.52959 10.9835L10.7934 12.2473C10.2494 12.5172 9.64412 12.6809 8.99788 12.6809C6.74024 12.6809 4.90793 10.8485 4.90793 8.5909C4.90793 7.9447 5.07154 7.33938 5.34148 6.79134Z" fill="#18ACFE"/>
</g>
<defs>
<clipPath id="clip0_58_144">
<rect width="17.0916" height="17.0916" fill="white" transform="scale(1.05314)"/>
</clipPath>
</defs>
</svg>
