<svg width="75" height="15" viewBox="0 0 75 15" fill="none" xmlns="http://www.w3.org/2000/svg">
<path d="M11.3827 0.580909V5.55788H1.61712V0.580909H11.3827ZM3.57965 2.13523V3.98786H9.42014V2.13523H3.57965ZM13.0312 6.4842V8.06992H7.48901V9.12183C9.98535 9.32594 11.4612 10.2208 11.4769 11.7124C11.4612 13.3452 9.59284 14.2872 6.4999 14.2872C3.35985 14.2872 1.49152 13.3452 1.49152 11.7124C1.49152 10.2208 2.95949 9.32594 5.47938 9.12183V8.06992H0V6.4842H13.0312ZM6.4999 10.6291C4.52167 10.6291 3.51685 10.9588 3.53255 11.7124C3.51685 12.4346 4.52167 12.7643 6.4999 12.7643C8.43102 12.7643 9.45154 12.4346 9.46724 11.7124C9.45154 10.9588 8.43102 10.6291 6.4999 10.6291Z" fill="black"/>
<path d="M25.4187 0.800712V2.00963C25.4187 3.21855 25.4187 4.57662 25.1047 6.32719H26.973V7.92862H13.8947V6.32719H23.0636C23.3855 4.72577 23.4247 3.53255 23.4247 2.40214H15.4961V0.800712H25.4187ZM25.8269 12.4189V14.0203H15.5589V9.18463H17.5372V12.4189H25.8269Z" fill="black"/>
<path d="M42.8302 0V3.01444H44.7614V4.67867H42.8302V7.83441H40.8206V0H42.8302ZM33.9125 0.722211V2.44924H36.8327V0.722211H38.8424V7.31631H31.9186V0.722211H33.9125ZM33.9125 5.74628H36.8327V3.98786H33.9125V5.74628ZM35.4511 8.44672V9.73414H40.8206V8.44672H42.8302V14.1302H33.4415V8.44672H35.4511ZM35.4511 12.5288H40.8206V11.2885H35.4511V12.5288Z" fill="black"/>
<path d="M62.1258 7.88152V9.48294H56.5679V14.2872H54.5897V9.48294H49.0946V7.88152H62.1258ZM60.964 0.753611V2.32363H56.8034C56.9997 3.72095 58.5776 5.12613 61.5135 5.47938L60.7913 7.0494C58.2793 6.71185 56.4816 5.63638 55.6259 4.16056C54.7467 5.63638 52.9647 6.71185 50.4762 7.0494L49.7383 5.47938C52.6272 5.12613 54.2207 3.72095 54.4484 2.32363H50.2721V0.753611H60.964Z" fill="black"/>
<path d="M75 0V14.2872H72.9747V0H75ZM70.7138 1.49152C70.7138 5.82479 69.1909 9.42014 64.0883 11.838L63.0364 10.2366C66.726 8.49382 68.351 6.23299 68.6728 3.06154H63.8057V1.49152H70.7138Z" fill="black"/>
</svg>
